<svg xmlns="http://www.w3.org/2000/svg" width="1903" height="1071" viewBox="0 0 1519 855"><rect width="100%" height="100%" fill="#DDDDDD"/><path fill="#999999" d="M418.96 331.275h25.25v154h-14.7q-3.41 0-5.7-1.12t-4.42-3.78l-80.41-102.66q.64 7.02.64 12.99v94.57h-25.24v-154h15.02q1.81 0 3.14.16t2.34.64q1.01.48 1.97 1.38.96.91 2.13 2.4l80.73 103.09q-.32-3.72-.53-7.35-.22-3.62-.22-6.71v-93.61Zm103.74 43.03q12.14 0 22.09 3.94 9.96 3.94 17.04 11.18 7.09 7.24 10.92 17.68t3.83 23.32q0 13-3.83 23.43-3.83 10.44-10.92 17.79-7.08 7.35-17.04 11.29-9.95 3.94-22.09 3.94-12.25 0-22.26-3.94-10.01-3.94-17.1-11.29-7.08-7.35-10.97-17.79-3.88-10.43-3.88-23.43 0-12.88 3.88-23.32 3.89-10.44 10.97-17.68 7.09-7.24 17.1-11.18 10.01-3.94 22.26-3.94Zm0 92.33q13.63 0 20.18-9.16 6.55-9.16 6.55-26.83 0-17.68-6.55-26.95-6.55-9.26-20.18-9.26-13.85 0-20.51 9.31-6.65 9.32-6.65 26.9 0 17.57 6.65 26.78 6.66 9.21 20.51 9.21Zm158.68-135.36v154h-28.75v-154h28.75Zm56.55 154h-26.3v-109.27h16.08q5.11 0 6.71 4.79l1.7 8.1q2.88-3.2 6.02-5.86 3.14-2.66 6.71-4.58t7.67-3.03q4.1-1.12 9-1.12 10.33 0 16.98 5.59 6.66 5.59 9.96 14.86 2.56-5.44 6.39-9.32 3.83-3.89 8.41-6.34 4.58-2.45 9.75-3.62 5.16-1.17 10.38-1.17 9.05 0 16.08 2.77 7.03 2.76 11.83 8.09 4.79 5.33 7.29 12.99 2.5 7.67 2.5 17.58v69.54h-26.3v-69.54q0-10.44-4.58-15.71-4.58-5.27-13.42-5.27-4.05 0-7.51 1.38t-6.07 3.99q-2.61 2.61-4.1 6.55-1.49 3.94-1.49 9.06v69.54h-26.41v-69.54q0-10.97-4.42-15.98-4.42-5-12.94-5-5.75 0-10.71 2.82-4.95 2.82-9.21 7.72v79.98Zm209.81-28.22v-18.43q-11.4.54-19.17 1.97-7.78 1.44-12.46 3.68-4.69 2.23-6.71 5.22-2.03 2.98-2.03 6.49 0 6.93 4.1 9.91 4.1 2.98 10.71 2.98 8.09 0 14-2.93t11.56-8.89Zm-55.6-57.41-4.68-8.41q18.85-17.25 45.37-17.25 9.58 0 17.14 3.14 7.57 3.14 12.78 8.73 5.22 5.59 7.94 13.37 2.71 7.77 2.71 17.04v69.01h-11.92q-3.73 0-5.76-1.12-2.02-1.12-3.19-4.52l-2.34-7.89q-4.16 3.73-8.1 6.55-3.94 2.83-8.2 4.74-4.26 1.92-9.1 2.93-4.85 1.01-10.71 1.01-6.92 0-12.78-1.86-5.85-1.86-10.11-5.59-4.26-3.73-6.61-9.27-2.34-5.53-2.34-12.88 0-4.16 1.38-8.26 1.39-4.1 4.53-7.82 3.14-3.73 8.15-7.03 5-3.3 12.3-5.75 7.29-2.45 16.99-4 9.69-1.54 22.15-1.86v-6.39q0-10.97-4.69-16.24-4.68-5.27-13.52-5.27-6.39 0-10.6 1.49t-7.4 3.35q-3.2 1.86-5.81 3.36-2.61 1.49-5.8 1.49-2.77 0-4.69-1.44-1.91-1.44-3.09-3.36Zm145.91 28.33q4.9 0 8.52-1.33 3.62-1.33 6.02-3.67 2.39-2.35 3.62-5.65 1.22-3.3 1.22-7.24 0-8.09-4.84-12.83-4.85-4.74-14.54-4.74t-14.54 4.74q-4.84 4.74-4.84 12.83 0 3.83 1.22 7.14 1.23 3.3 3.62 5.69 2.4 2.4 6.07 3.73 3.68 1.33 8.47 1.33Zm29.71 62.2q0-3.2-1.91-5.22-1.92-2.02-5.22-3.14t-7.72-1.65q-4.42-.53-9.38-.8-4.95-.27-10.22-.48-5.27-.21-10.28-.85-4.36 2.45-7.08 5.75-2.72 3.3-2.72 7.67 0 2.87 1.44 5.38 1.44 2.5 4.58 4.31 3.14 1.81 8.15 2.82 5 1.01 12.25 1.01 7.35 0 12.67-1.12 5.33-1.11 8.79-3.08 3.46-1.97 5.06-4.69 1.59-2.72 1.59-5.91Zm-5.22-110.44h31.42v9.8q0 4.68-5.64 5.75l-9.8 1.81q2.24 5.64 2.24 12.35 0 8.1-3.25 14.65-3.25 6.55-9 11.13-5.75 4.57-13.58 7.08-7.83 2.5-16.88 2.5-3.2 0-6.18-.32-2.98-.32-5.86-.85-5.11 3.09-5.11 6.92 0 3.3 3.04 4.85 3.03 1.54 8.04 2.18 5 .64 11.39.8 6.39.16 13.1.69 6.71.53 13.1 1.86 6.39 1.34 11.4 4.21 5 2.88 8.04 7.83 3.03 4.95 3.03 12.73 0 7.24-3.56 14.05-3.57 6.82-10.33 12.15-6.77 5.32-16.62 8.57-9.85 3.25-22.42 3.25-12.35 0-21.51-2.4-9.16-2.4-15.23-6.39-6.07-3.99-9.05-9.21-2.98-5.22-2.98-10.87 0-7.66 4.63-12.83 4.63-5.16 12.73-8.25-4.37-2.24-6.93-5.97-2.55-3.72-2.55-9.79 0-2.45.9-5.06.91-2.61 2.67-5.17 1.75-2.55 4.42-4.84 2.66-2.29 6.28-4.1-8.31-4.48-13.05-11.93-4.74-7.46-4.74-17.47 0-8.09 3.25-14.64 3.25-6.55 9.05-11.18 5.81-4.64 13.74-7.09 7.94-2.45 17.31-2.45 7.03 0 13.21 1.44 6.17 1.44 11.28 4.21Zm68.8 38.34h49.63q0-5.11-1.44-9.64-1.43-4.53-4.31-7.93-2.87-3.41-7.29-5.38-4.42-1.97-10.28-1.97-11.4 0-17.95 6.49-6.55 6.5-8.36 18.43Zm67.1 15.87h-67.63q.64 8.41 2.98 14.53 2.35 6.13 6.18 10.12 3.83 4 9.11 5.97 5.27 1.97 11.66 1.97 6.39 0 11.02-1.49 4.63-1.5 8.09-3.31 3.47-1.81 6.07-3.3 2.61-1.49 5.06-1.49 3.3 0 4.9 2.45l7.56 9.59q-4.36 5.11-9.79 8.57-5.44 3.46-11.35 5.54-5.91 2.07-12.03 2.93-6.12.85-11.88.85-11.39 0-21.19-3.78t-17.04-11.19q-7.24-7.4-11.39-18.31-4.16-10.92-4.16-25.3 0-11.18 3.62-21.03 3.62-9.85 10.39-17.15 6.76-7.29 16.5-11.55 9.75-4.26 22-4.26 10.33 0 19.06 3.3 8.73 3.3 15.02 9.64 6.28 6.33 9.85 15.55 3.57 9.21 3.57 21.03 0 5.96-1.28 8.04-1.28 2.08-4.9 2.08Z"/></svg>