<svg xmlns="http://www.w3.org/2000/svg" width="600" height="900" viewBox="0 0 600 900"><rect width="100%" height="100%" fill="#DDDDDD"/><path fill="#999999" d="M165.7 412.055h9.96v60.73h-5.8q-1.34 0-2.25-.44-.9-.44-1.74-1.49l-31.71-40.49q.25 2.77.25 5.12v37.3h-9.95v-60.73h5.92q.72 0 1.24.06.53.06.92.25.4.19.78.55.38.36.84.94l31.84 40.66q-.13-1.47-.21-2.9-.09-1.43-.09-2.64v-36.92Zm40.91 16.97q4.79 0 8.72 1.55 3.92 1.55 6.72 4.41 2.79 2.86 4.3 6.97 1.51 4.12 1.51 9.2 0 5.12-1.51 9.24t-4.3 7.01q-2.8 2.9-6.72 4.46-3.93 1.55-8.72 1.55-4.83 0-8.78-1.55-3.94-1.56-6.74-4.46-2.79-2.89-4.32-7.01-1.54-4.12-1.54-9.24 0-5.08 1.54-9.2 1.53-4.11 4.32-6.97 2.8-2.86 6.74-4.41 3.95-1.55 8.78-1.55Zm0 36.41q5.38 0 7.96-3.61t2.58-10.59q0-6.97-2.58-10.62-2.58-3.66-7.96-3.66-5.46 0-8.08 3.68-2.63 3.67-2.63 10.6t2.63 10.57q2.62 3.63 8.08 3.63Zm62.58-53.38v60.73h-11.34v-60.73h11.34Zm22.3 60.73h-10.37v-43.09h6.34q2.02 0 2.65 1.89l.67 3.19q1.13-1.26 2.37-2.31 1.24-1.05 2.65-1.81 1.41-.75 3.02-1.19 1.62-.44 3.55-.44 4.08 0 6.7 2.2 2.63 2.21 3.93 5.86 1.01-2.14 2.52-3.68 1.51-1.53 3.32-2.49 1.8-.97 3.84-1.43 2.04-.46 4.09-.46 3.57 0 6.35 1.09 2.77 1.09 4.66 3.19 1.89 2.1 2.87 5.12.99 3.03.99 6.93v27.43h-10.37v-27.43q0-4.11-1.81-6.19-1.8-2.08-5.29-2.08-1.6 0-2.96.55-1.37.54-2.4 1.57-1.02 1.03-1.61 2.58-.59 1.56-.59 3.57v27.43h-10.42v-27.43q0-4.32-1.74-6.3-1.74-1.97-5.1-1.97-2.27 0-4.22 1.11-1.96 1.12-3.64 3.05v31.54Zm82.74-11.13v-7.27q-4.49.21-7.56.78-3.06.57-4.91 1.45t-2.65 2.06q-.79 1.17-.79 2.56 0 2.73 1.61 3.91 1.62 1.17 4.22 1.17 3.2 0 5.53-1.15 2.33-1.16 4.55-3.51Zm-21.92-22.64-1.85-3.32q7.44-6.8 17.89-6.8 3.78 0 6.77 1.24 2.98 1.24 5.04 3.44 2.05 2.21 3.12 5.27 1.08 3.07 1.08 6.72v27.22h-4.71q-1.47 0-2.27-.44-.79-.44-1.26-1.79l-.92-3.1q-1.64 1.47-3.19 2.58-1.56 1.11-3.24 1.87-1.68.75-3.59 1.15-1.91.4-4.22.4-2.73 0-5.04-.73-2.31-.74-3.99-2.21-1.68-1.47-2.6-3.65-.93-2.19-.93-5.08 0-1.64.55-3.26.55-1.62 1.78-3.09 1.24-1.47 3.22-2.77 1.97-1.3 4.85-2.27 2.88-.96 6.7-1.57 3.82-.61 8.73-.74v-2.52q0-4.32-1.84-6.4-1.85-2.08-5.34-2.08-2.52 0-4.18.59-1.66.59-2.92 1.32-1.26.74-2.29 1.32-1.02.59-2.28.59-1.1 0-1.85-.57-.76-.56-1.22-1.32Zm57.54 11.17q1.93 0 3.36-.52 1.43-.53 2.37-1.45.95-.92 1.43-2.23.48-1.3.48-2.85 0-3.19-1.91-5.06-1.91-1.87-5.73-1.87-3.82 0-5.73 1.87-1.91 1.87-1.91 5.06 0 1.51.48 2.81t1.43 2.25q.94.94 2.39 1.47 1.45.52 3.34.52Zm11.72 24.53q0-1.26-.76-2.06-.75-.79-2.06-1.23-1.3-.45-3.04-.66-1.74-.21-3.7-.31-1.95-.11-4.03-.19t-4.05-.34q-1.72.97-2.8 2.27-1.07 1.3-1.07 3.03 0 1.13.57 2.12.57.98 1.81 1.7 1.24.71 3.21 1.11 1.97.4 4.83.4 2.9 0 5-.44t3.46-1.22q1.37-.78 2-1.85.63-1.07.63-2.33Zm-2.06-43.55h12.39v3.86q0 1.85-2.23 2.27l-3.86.71q.88 2.23.88 4.88 0 3.19-1.28 5.77-1.28 2.58-3.55 4.39-2.27 1.81-5.35 2.79-3.09.99-6.66.99-1.26 0-2.44-.13-1.17-.12-2.31-.33-2.01 1.22-2.01 2.73 0 1.3 1.19 1.91 1.2.61 3.18.86 1.97.25 4.49.31 2.52.07 5.17.28 2.64.21 5.16.73 2.52.53 4.5 1.66 1.97 1.14 3.17 3.09 1.19 1.95 1.19 5.02 0 2.85-1.4 5.54-1.41 2.69-4.08 4.79-2.66 2.1-6.55 3.38-3.88 1.28-8.84 1.28-4.87 0-8.48-.94-3.62-.95-6.01-2.52-2.39-1.58-3.57-3.64-1.18-2.05-1.18-4.28 0-3.02 1.83-5.06 1.83-2.04 5.02-3.26-1.72-.88-2.73-2.35-1.01-1.47-1.01-3.86 0-.97.36-2t1.05-2.03q.69-1.01 1.74-1.92 1.05-.9 2.48-1.61-3.28-1.77-5.15-4.71-1.86-2.94-1.86-6.88 0-3.2 1.28-5.78t3.57-4.41q2.29-1.83 5.41-2.79 3.13-.97 6.83-.97 2.77 0 5.21.57 2.43.57 4.45 1.66Zm27.13 15.12h19.57q0-2.02-.56-3.8-.57-1.79-1.7-3.13-1.14-1.35-2.88-2.12-1.74-.78-4.05-.78-4.5 0-7.08 2.56t-3.3 7.27Zm26.46 6.26h-26.67q.25 3.31 1.18 5.73.92 2.41 2.43 3.99 1.52 1.57 3.59 2.35 2.08.78 4.6.78 2.52 0 4.35-.59 1.83-.59 3.19-1.3 1.37-.72 2.4-1.3 1.03-.59 1.99-.59 1.3 0 1.93.96l2.99 3.78q-1.73 2.02-3.87 3.38-2.14 1.37-4.47 2.19-2.33.82-4.75 1.15-2.41.34-4.68.34-4.49 0-8.36-1.49-3.86-1.49-6.72-4.41-2.85-2.92-4.49-7.23-1.64-4.3-1.64-9.97 0-4.41 1.43-8.3 1.43-3.88 4.09-6.76 2.67-2.87 6.51-4.55 3.85-1.68 8.68-1.68 4.07 0 7.51 1.3 3.45 1.3 5.93 3.8 2.47 2.5 3.88 6.13 1.41 3.63 1.41 8.3 0 2.35-.51 3.17-.5.82-1.93.82Z"/></svg>